<svg width="15" height="15" fill="none" xmlns="http://www.w3.org/2000/svg"><g fill="#D24A43"><path d="M1.753 8.229v.002l-.001.001V8.23l.001-.001z"/><path d="M13.558 8.88c-.023-1.028-.282-2.079-.772-3.123-.827-1.766-2.014-2.89-2.064-2.938a.294.294 0 00-.362-.032.292.292 0 00-.115.343c.006.018.153.463-.058 1.082-.043.128-.153.135-.199.133a.192.192 0 01-.183-.157c-.139-.647-.45-1.594-1.147-2.435C7.906.845 6.877.257 5.599.006a.293.293 0 00-.337.372c.424 1.404.163 2.37-.402 3.273-.937-1.104-2.047-1.226-2.098-1.231a.293.293 0 00-.298.407c.003.005.226.537.31 1.338a5.459 5.459 0 01-.518 3.006 8.366 8.366 0 00-.504 1.059c-.055.15-.11.321-.15.474a.293.293 0 10.567.149c.037-.14.081-.28.131-.416.487-1.249 1.232-2.15 1.952-3.02C5.356 4.083 6.402 2.819 5.948.69c2.31.658 3.049 2.523 3.284 3.62a.777.777 0 00.722.619.776.776 0 00.788-.53 2.66 2.66 0 00.126-.555c.405.485.96 1.241 1.395 2.177 1.027 2.202.948 4.316-.235 6.282a4.351 4.351 0 01-1.828 1.663 4.075 4.075 0 001.372-3.05v-.005c-.035-2.41-1.896-4.184-1.975-4.258a.296.296 0 00-.366-.033.288.288 0 00-.11.346v-.001c.035.116-.034.166-.098.187-.053.018-.15.03-.195-.093-.324-.89-1.07-2.02-2.79-2.359a.293.293 0 00-.35.288c0 1.276-.553 2.101-1.139 2.975-.563.838-1.144 1.706-1.144 2.952a4.08 4.08 0 001.654 3.281A4.427 4.427 0 012.23 11.3a.293.293 0 00-.559.176C2.335 13.584 4.241 15 6.417 15h1.848c.856 0 1.703-.22 2.448-.637a4.931 4.931 0 001.817-1.757c.71-1.181 1.056-2.435 1.028-3.725zM3.801 5.044a42.03 42.03 0 00-.47.574 6.337 6.337 0 00-.152-2.484 3.14 3.14 0 011.334 1.02c-.217.292-.459.584-.712.89zm3.687 9.371a3.502 3.502 0 01-3.497-3.498c0-1.068.507-1.825 1.045-2.626.556-.829 1.129-1.683 1.225-2.932 1.214.356 1.766 1.215 2.017 1.903.162.445.591.562.932.448a.775.775 0 00.346-.235c.516.617 1.407 1.902 1.43 3.444a3.502 3.502 0 01-3.498 3.496z"/><path d="M1.94 10.295a.295.295 0 000-.414.294.294 0 00-.414 0 .295.295 0 000 .414.294.294 0 00.414 0zm6.493-1.228a.293.293 0 00-.391.136l-1.612 3.32a.293.293 0 10.527.255l1.612-3.32a.293.293 0 00-.136-.391zm.573 2.121a.939.939 0 000 1.875.939.939 0 000-1.875zm0 1.289a.352.352 0 110-.704.352.352 0 010 .704zM6.93 9.855a.939.939 0 00-1.875 0 .939.939 0 001.875 0zm-.937.352a.352.352 0 110-.704.352.352 0 010 .704z"/></g><defs><clipPath id="clip0"><path fill="#fff" d="M0 0h15v15H0z"/></clipPath></defs></svg>