<svg width="89" height="92" fill="none" xmlns="http://www.w3.org/2000/svg"><rect x="7" y="13" width="69" height="72" rx="8" fill="#767676"/><g filter="url(#filter0_d)"><rect x="15" y="5" width="69" height="72" rx="8" fill="#333"/></g><path d="M63.502 42.184l-3.613 3.613a2.37 2.37 0 00-.151-.166l-4.666-4.666a.66.66 0 10-.934.934l4.666 4.666a1.03 1.03 0 01-1.455 1.455l-2.593-2.593a.66.66 0 10-.934.934l2.593 2.593c.194.195.301.453.301.728 0 .274-.107.533-.301.727a1.022 1.022 0 01-.727.301c-.275 0-.534-.107-.728-.301l-2.593-2.593a.66.66 0 00-.934.934l2.593 2.593a1.03 1.03 0 01-1.455 1.455l-2.593-2.593a.66.66 0 00-.934.934l2.593 2.593a1.03 1.03 0 01-1.455 1.455l-1.68-1.68a2.325 2.325 0 00-.348-2.836l-.04-.04a2.318 2.318 0 00-1.874-.667 2.304 2.304 0 00-.674-1.483 2.307 2.307 0 00-1.085-.611 2.32 2.32 0 00-.525-2.478 2.306 2.306 0 00-1.642-.68c-.353 0-.694.08-1.004.228-.104-.37-.3-.719-.59-1.01a2.324 2.324 0 00-3.284 0l-.272.273-.199-.198a1.68 1.68 0 01-.495-1.196v-1.723a.66.66 0 00-.194-.467l-2.82-2.82.793-.792a.66.66 0 10-.934-.934l-1.062 1.062c-.2.2-.526.2-.726 0l-3.4-3.4a.66.66 0 10-.933.935l3.399 3.399a1.829 1.829 0 001.744.48l2.812 2.81v1.45c0 .804.313 1.56.882 2.13l.199.198-.221.221a2.307 2.307 0 00-.68 1.642c0 .62.24 1.203.68 1.642a2.315 2.315 0 001.641.678h.028v.03a2.3 2.3 0 00.68 1.64c.438.44 1.021.68 1.641.68h.03a2.315 2.315 0 002.32 2.349h.029c-.008.603.218 1.21.678 1.67l.04.04c.438.438 1.021.68 1.642.68.62 0 1.203-.242 1.641-.68l1.239-1.239 1.63 1.631a2.334 2.334 0 001.662.688 2.343 2.343 0 002.348-2.39l.04.001a2.343 2.343 0 002.348-2.391l.042.001c.601 0 1.203-.229 1.661-.687a2.334 2.334 0 00.689-1.661l-.002-.041h.04a2.343 2.343 0 002.343-2.506l4.017-4.016a.66.66 0 10-.934-.935zm-26.56 5.523A.994.994 0 0136.65 47c0-.267.105-.519.294-.708l1.427-1.427a.998.998 0 011.415 0c.39.39.39 1.025 0 1.415l-1.427 1.428c-.39.39-1.025.39-1.416 0zM40 50.35a.994.994 0 01-.707-.293.994.994 0 01-.293-.708c0-.267.104-.518.293-.707l1.427-1.428.888-.887a.994.994 0 01.707-.294c.268 0 .519.105.708.294.189.189.293.44.293.707a.994.994 0 01-.293.708l-2.315 2.315a.994.994 0 01-.708.293zm1.642 2.056a1.002 1.002 0 010-1.415l1.575-1.576a.998.998 0 011.415 0c.19.19.294.44.294.708a.994.994 0 01-.293.707l-1.576 1.576c-.39.39-1.025.39-1.415 0zm3.804 2.389a.994.994 0 01-.708.293.994.994 0 01-.707-.293l-.04-.04a1.002 1.002 0 010-1.415l1.576-1.576.001-.001.198-.198a.998.998 0 011.415 0l.04.04c.39.39.39 1.025 0 1.415l-1.775 1.775z" fill="#fff"/><path d="M71.807 36.519a.66.66 0 00-.934 0l-2.476 2.475a.09.09 0 01-.125.001l-8.75-8.359a.086.086 0 01-.028-.063c0-.025.009-.047.026-.064l5.19-5.19a.66.66 0 10-.934-.935l-5.19 5.19a1.4 1.4 0 00-.413 1.014c.004.309.107.6.29.84l-2.374 2.328-2.238-1.248a1.972 1.972 0 00-.96-.25h-6.358l-.484-.483a4.453 4.453 0 00-1.573-1.019l-1.76-.67-.814-.814a1.835 1.835 0 00-.276-2.237l-2.65-2.65a.66.66 0 10-.934.933l2.65 2.65c.2.201.2.527 0 .727l-5.386 5.387a.66.66 0 10.934.934l4.769-4.769.873.872a.662.662 0 00.232.15l1.892.722c.408.155.772.39 1.084.695-.04.033-.08.068-.117.106l-2.512 2.512a2.622 2.622 0 00-.773 1.866c0 .705.275 1.368.773 1.867a2.632 2.632 0 003.543.172l1.9-1.563h1.98l2.264 2.263a.66.66 0 10.934-.934l-1.635-1.635a.66.66 0 00-.557-1.015h-3.222a.66.66 0 00-.42.15l-2.083 1.714a1.314 1.314 0 01-1.77-.086 1.31 1.31 0 01-.386-.933c0-.352.137-.683.386-.932l2.512-2.512a.494.494 0 01.352-.146h6.633c.11 0 .219.029.315.082l2.475 1.38a.964.964 0 001.137-.152l2.587-2.537 7.123 6.804-1.037 1.037a.66.66 0 10.934.934l1.067-1.067c.248.184.544.277.84.277.363 0 .725-.137.998-.41l2.476-2.475a.66.66 0 000-.934z" fill="#fff"/><defs><filter id="filter0_d" x="0" y="0" width="89" height="92" filterUnits="userSpaceOnUse" color-interpolation-filters="sRGB"><feFlood flood-opacity="0" result="BackgroundImageFix"/><feColorMatrix in="SourceAlpha" values="0 0 0 0 0 0 0 0 0 0 0 0 0 0 0 0 0 0 127 0"/><feOffset dx="-5" dy="5"/><feGaussianBlur stdDeviation="5"/><feColorMatrix values="0 0 0 0 0 0 0 0 0 0 0 0 0 0 0 0 0 0 0.25 0"/><feBlend in2="BackgroundImageFix" result="effect1_dropShadow"/><feBlend in="SourceGraphic" in2="effect1_dropShadow" result="shape"/></filter></defs></svg>