<svg width="35" height="35" fill="none" xmlns="http://www.w3.org/2000/svg"><path d="M34.694 7.956c-.26-.32-.65-.505-1.061-.505H8.869l-.102-.932-.003-.03A7.48 7.48 0 001.367 0a1.367 1.367 0 100 2.734c2.359 0 4.37 1.76 4.684 4.097l1.625 14.93a4.107 4.107 0 00-2.412 3.805 4.106 4.106 0 004.101 4.102h.557A4.038 4.038 0 0013.74 35a4.038 4.038 0 003.818-5.332h5.898A4.038 4.038 0 0027.276 35a4.038 4.038 0 004.033-4.033 4.038 4.038 0 00-4.034-4.033H9.366a1.369 1.369 0 01-1.367-1.436c0-.754.613-1.367 1.367-1.367H26.82c2.427 0 4.654-1.502 5.674-3.826a1.367 1.367 0 10-2.504-1.099c-.575 1.31-1.85 2.19-3.17 2.19H10.387l-1.22-11.21H31.95l-.669 3.207a1.367 1.367 0 102.677.558l1.012-4.853a1.367 1.367 0 00-.277-1.142zm-7.419 21.712a1.3 1.3 0 011.3 1.299 1.3 1.3 0 01-1.3 1.299 1.3 1.3 0 01-1.298-1.3 1.3 1.3 0 011.298-1.298zm-13.535 0a1.3 1.3 0 011.3 1.299 1.3 1.3 0 01-1.3 1.299 1.3 1.3 0 01-1.299-1.3 1.3 1.3 0 011.3-1.298z" fill="#1D1919"/></svg>