<svg width="19" height="19" fill="none" xmlns="http://www.w3.org/2000/svg"><path d="M4.96 2.993A6.545 6.545 0 003.14 7.34a6.572 6.572 0 001.55 4.458 6.142 6.142 0 004.08 2.151 6.06 6.06 0 004.322-1.27l3.212 3.328h0a.863.863 0 00.613.263.84.84 0 00.613-.263.895.895 0 00.251-.63.916.916 0 00-.252-.629h0l-3.216-3.332a6.6 6.6 0 001.223-4.476 6.515 6.515 0 00-2.074-4.22A6.087 6.087 0 009.16 1.113a6.113 6.113 0 00-4.2 1.88zm0 0l.072.07-.072-.07zm7.565 1.26c.422.43.758.943.988 1.509a4.797 4.797 0 01.014 3.578 4.665 4.665 0 01-.976 1.518 4.475 4.475 0 01-1.464 1.01 4.345 4.345 0 01-3.446-.014 4.481 4.481 0 01-1.456-1.023 4.74 4.74 0 01-1.289-3.282 4.738 4.738 0 011.315-3.27 4.405 4.405 0 013.152-1.36 4.403 4.403 0 013.162 1.333z" fill="#fff" stroke="#fff" stroke-width=".2"/></svg>