<svg width="29" height="33" fill="none" xmlns="http://www.w3.org/2000/svg"><path d="M22.76 22.148l3.834-1.698a2.419 2.419 0 001.298-1.38 2.419 2.419 0 00-.081-1.891l-.818-1.73a.652.652 0 00-.851-.317l-.728.32-1.125-2.25c-1.918-3.838-6.69-5.51-10.585-3.695L9.707 11.34V7.11l.657-2.516a.67.67 0 01.624-.43h7.386c2.629 0 4.23-3.086 4.296-3.217A.652.652 0 0022.09 0H6.39c-.327 0-.664.016-1 .047A2.547 2.547 0 003.072 2.6v13.034a.652.652 0 001.303 0V7.677h4.027v4.68a.652.652 0 00.924.592l4.924-2.26c3.264-1.52 7.264-.122 8.872 3.096l1.096 2.19-3.601 1.58-1.19-2.14a2.915 2.915 0 00-3.826-1.203L8.77 17.546a.652.652 0 00-.366.585v10.564H4.376v-7.333a.652.652 0 00-1.303 0v7.334a2.175 2.175 0 00-2.12 2.172v1.48c0 .36.292.652.652.652h9.697c.36 0 .652-.292.652-.652v-1.48a2.176 2.176 0 00-2.173-2.173h-.075V18.538l6.467-3.155a1.613 1.613 0 012.116.666l1.13 2.033-.347.152a.652.652 0 00-.334.862l.808 1.815a2.442 2.442 0 003.215 1.237zM4.377 2.6A1.25 1.25 0 015.51 1.345a9.4 9.4 0 01.88-.042h14.49c-.558.71-1.447 1.558-2.505 1.558H10.99a1.973 1.973 0 00-1.88 1.375l-.558 2.137H4.376V2.6zm6.275 28.268v.829H2.257v-.829c0-.48.39-.87.87-.87H9.78c.48 0 .87.39.87.87zm10.086-10.487l-.542-1.217 5.89-2.584.548 1.156c.132.279.145.592.038.88a1.126 1.126 0 01-.604.643l-3.834 1.698a1.136 1.136 0 01-1.496-.576z" fill="#D24A43"/></svg>