<svg width="15" height="15" viewBox="0 0 15 15" fill="none" xmlns="http://www.w3.org/2000/svg">
<g clip-path="url(#clip0)">
<path d="M1.75325 8.22887C1.75383 8.22736 1.75311 8.22887 1.75239 8.23053C1.75167 8.23196 1.75109 8.23324 1.75176 8.232C1.75133 8.23312 1.75128 8.23335 1.75263 8.23041C1.75397 8.22755 1.75378 8.22778 1.75325 8.22887Z" fill="#D24A43"/>
<path d="M13.558 8.88067C13.5353 7.85212 13.2756 6.80106 12.7862 5.75672C11.959 3.99149 10.7721 2.86606 10.722 2.81903C10.6233 2.72637 10.4736 2.71233 10.3603 2.78666C10.2471 2.86099 10.1992 3.00211 10.245 3.12955C10.2513 3.14815 10.3981 3.59262 10.1873 4.21213C10.1439 4.33969 10.0341 4.34716 9.98846 4.34464C9.9528 4.34256 9.83412 4.32513 9.80486 4.18846C9.66622 3.54147 9.35468 2.59365 8.65777 1.75251C7.90583 0.844923 6.87672 0.257169 5.599 0.00553818C5.49816 -0.0143544 5.39424 0.020128 5.32525 0.0963292C5.25625 0.17253 5.23223 0.279317 5.26194 0.377696C5.6861 1.78184 5.42465 2.7477 4.85954 3.65098C3.92269 2.54654 2.8133 2.42484 2.7623 2.41983C2.65941 2.40967 2.55886 2.4549 2.49763 2.53828C2.43643 2.62166 2.42383 2.73138 2.46429 2.82653C2.46655 2.83184 2.68976 3.36384 2.77337 4.16546C2.88435 5.2294 2.71036 6.2407 2.25622 7.17132C2.07356 7.49388 1.89807 7.85686 1.75211 8.22984C1.69745 8.3797 1.64272 8.55129 1.60261 8.70434C1.56157 8.86084 1.65517 9.02101 1.8117 9.06202C1.96818 9.10301 2.12837 9.00946 2.16939 8.85293C2.20598 8.71342 2.24998 8.5735 2.30026 8.43688C2.78656 7.18802 3.53178 6.28755 4.25245 5.41676C5.35589 4.08349 6.40232 2.81918 5.94769 0.691056C8.25883 1.3488 8.99685 3.21416 9.2319 4.31118C9.30666 4.66014 9.59694 4.90866 9.95424 4.92955C10.31 4.95038 10.6273 4.73792 10.742 4.4008C10.8097 4.2017 10.8485 4.0147 10.8682 3.84507C11.2729 4.3304 11.8272 5.0862 12.2634 6.02197C13.29 8.22437 13.2107 10.3379 12.0278 12.3039C11.591 13.0298 10.9492 13.6022 10.2002 13.9666C11.0412 13.2181 11.572 12.1281 11.572 10.9163C11.572 10.9149 11.572 10.9135 11.5719 10.9121C11.5369 8.50216 9.6763 6.72829 9.59711 6.65396C9.49724 6.56024 9.34422 6.54439 9.23075 6.62133C9.11732 6.69823 9.07094 6.83974 9.12113 6.96727L9.12057 6.96598C9.15605 7.08205 9.08732 7.13191 9.02342 7.15333C8.96978 7.17129 8.87307 7.18313 8.8283 7.06025C8.50419 6.17089 7.75709 5.03962 6.03825 4.70112C5.95229 4.68413 5.86326 4.70663 5.79558 4.7623C5.72787 4.81793 5.68867 4.90093 5.68867 4.98858C5.68867 6.26499 5.13517 7.09008 4.54917 7.96362C3.9865 8.80239 3.40469 9.6697 3.40469 10.9164C3.40469 12.259 4.05611 13.4523 5.05938 14.197C3.7387 13.7625 2.6723 12.7054 2.22997 11.3004C2.18137 11.1461 2.01687 11.0604 1.86253 11.1089C1.7082 11.1575 1.62247 11.322 1.67105 11.4763C2.33459 13.5839 4.24188 15 6.41705 15H8.26492C9.1213 15 9.96772 14.7798 10.7126 14.3634C11.4618 13.9445 12.0902 13.3368 12.5299 12.606C13.2406 11.4248 13.5865 10.1714 13.558 8.88067ZM3.80111 5.04316C3.64783 5.22838 3.49015 5.41893 3.33192 5.61709C3.41307 5.02682 3.39868 4.49804 3.35374 4.08152C3.31287 3.70274 3.24444 3.38004 3.17878 3.13307C3.54215 3.27466 4.05704 3.56543 4.51302 4.15386C4.29599 4.44516 4.05432 4.73722 3.80111 5.04316ZM7.48835 14.4141C5.55971 14.4141 3.99063 12.845 3.99063 10.9163C3.99063 9.84803 4.49831 9.09123 5.03576 8.29002C5.5917 7.4613 6.16493 6.60686 6.26067 5.35775C7.47526 5.71403 8.02733 6.57346 8.27782 7.26085C8.43986 7.70555 8.86911 7.82297 9.20954 7.70892C9.34232 7.66444 9.46466 7.5835 9.55601 7.47437C10.072 8.09124 10.9629 9.37632 10.9861 10.9184C10.9849 12.8462 9.41629 14.4141 7.48835 14.4141Z" fill="#D24A43"/>
<path d="M1.94047 10.2949C1.99496 10.2404 2.02631 10.1651 2.02631 10.0881C2.02631 10.0107 1.99496 9.93544 1.94047 9.88094C1.88597 9.82616 1.81039 9.7951 1.73334 9.7951C1.65629 9.7951 1.5807 9.82616 1.52621 9.88094C1.47172 9.93544 1.44037 10.0108 1.44037 10.0881C1.44037 10.1651 1.47172 10.2404 1.52621 10.2949C1.5807 10.3497 1.65629 10.381 1.73334 10.381C1.81068 10.381 1.88597 10.3497 1.94047 10.2949Z" fill="#D24A43"/>
<path d="M8.43327 9.06705C8.28781 8.99635 8.11244 9.05703 8.04177 9.2026L6.42971 12.5221C6.35902 12.6676 6.41972 12.8429 6.56527 12.9136C6.60649 12.9336 6.65008 12.9431 6.69303 12.9431C6.80169 12.9431 6.90611 12.8823 6.95679 12.778L8.56879 9.45851C8.63952 9.31299 8.57881 9.13771 8.43327 9.06705Z" fill="#D24A43"/>
<path d="M9.00555 11.1876C8.48861 11.1876 8.06805 11.6081 8.06805 12.1251C8.06805 12.642 8.48861 13.0626 9.00555 13.0626C9.5225 13.0626 9.94305 12.642 9.94305 12.1251C9.94305 11.6081 9.5225 11.1876 9.00555 11.1876ZM9.00555 12.4767C8.8117 12.4767 8.65399 12.319 8.65399 12.1251C8.65399 11.9312 8.8117 11.7735 9.00555 11.7735C9.19941 11.7735 9.35712 11.9312 9.35712 12.1251C9.35712 12.319 9.19941 12.4767 9.00555 12.4767Z" fill="#D24A43"/>
<path d="M6.93048 9.8555C6.93048 9.33856 6.50992 8.918 5.99298 8.918C5.47604 8.918 5.05548 9.33856 5.05548 9.8555C5.05548 10.3724 5.47604 10.793 5.99298 10.793C6.50992 10.793 6.93048 10.3724 6.93048 9.8555ZM5.99298 10.2071C5.79912 10.2071 5.64142 10.0494 5.64142 9.8555C5.64142 9.66164 5.79912 9.50394 5.99298 9.50394C6.18684 9.50394 6.34454 9.66164 6.34454 9.8555C6.34454 10.0494 6.18684 10.2071 5.99298 10.2071Z" fill="#D24A43"/>
</g>
<defs>
<clipPath id="clip0">
<rect width="15" height="15" fill="white"/>
</clipPath>
</defs>
</svg>
