<svg width="35" height="35" viewBox="0 0 35 35" fill="none" xmlns="http://www.w3.org/2000/svg">
<path d="M34.6937 7.95594C34.4341 7.63656 34.0444 7.45117 33.6328 7.45117H8.86867L8.76723 6.5193L8.7636 6.48936C8.27825 2.78988 5.09845 0 1.36719 0C0.61209 0 0 0.61209 0 1.36719C0 2.12229 0.61209 2.73438 1.36719 2.73438C3.726 2.73438 5.73692 4.49456 6.05062 6.83102L7.67573 21.7608C6.25454 22.4058 5.26367 23.8384 5.26367 25.498C5.26367 25.5095 5.26381 25.5209 5.26408 25.5322C5.26381 25.5436 5.26367 25.555 5.26367 25.5664C5.26367 27.828 7.10363 29.668 9.36523 29.668H9.92154C9.7825 30.0757 9.70703 30.5125 9.70703 30.9668C9.70703 33.1907 11.5163 35 13.7402 35C15.9642 35 17.7734 33.1907 17.7734 30.9668C17.7734 30.5125 17.698 30.0757 17.5589 29.668H23.4568C23.3177 30.0757 23.2423 30.5125 23.2423 30.9668C23.2423 33.1907 25.0515 35 27.2755 35C29.4994 35 31.3087 33.1907 31.3087 30.9668C31.3087 28.7429 29.4994 26.9336 27.2755 26.9336H9.36523C8.61137 26.9336 7.99805 26.3203 7.99805 25.5664C7.99805 25.555 7.99791 25.5436 7.99764 25.5322C7.99791 25.5209 7.99805 25.5095 7.99805 25.498C7.99805 24.7442 8.61137 24.1309 9.36523 24.1309H26.8195C29.2465 24.1309 31.4737 22.6293 32.4937 20.3053C32.7972 19.6139 32.4827 18.8074 31.7913 18.5039C31.1 18.2005 30.2935 18.5149 29.9899 19.2063C29.415 20.5164 28.1409 21.3965 26.8195 21.3965H10.3866L9.16631 10.1855H31.951L31.2821 13.3927C31.1279 14.1319 31.6021 14.8561 32.3413 15.0102C32.4354 15.0299 32.5293 15.0393 32.6218 15.0393C33.2557 15.0393 33.8243 14.5961 33.9588 13.9511L34.9712 9.09754C35.0552 8.69463 34.9533 8.27531 34.6937 7.95594ZM27.2754 29.668C27.9916 29.668 28.5742 30.2506 28.5742 30.9668C28.5742 31.683 27.9916 32.2656 27.2754 32.2656C26.5592 32.2656 25.9766 31.683 25.9766 30.9668C25.9766 30.2506 26.5592 29.668 27.2754 29.668ZM13.7402 29.668C14.4564 29.668 15.0391 30.2507 15.0391 30.9668C15.0391 31.683 14.4564 32.2656 13.7402 32.2656C13.024 32.2656 12.4414 31.683 12.4414 30.9668C12.4414 30.2506 13.024 29.668 13.7402 29.668Z" fill="#1D1919"/>
</svg>
