<svg width="20" height="20" viewBox="0 0 20 20" fill="none" xmlns="http://www.w3.org/2000/svg">
<path d="M17.1054 2.27664H2.89454C2.55278 2.27664 2.27667 2.55275 2.27667 2.89451V17.1054C2.27667 17.4471 2.55278 17.7232 2.89454 17.7232H17.1054C17.4471 17.7232 17.7233 17.4471 17.7233 17.1054V2.89451C17.7233 2.55275 17.4471 2.27664 17.1054 2.27664ZM15.3213 6.78511H14.0875C13.1202 6.78511 12.9329 7.24465 12.9329 7.92044V9.4091H15.2421L14.9409 11.7396H12.9329V17.7232H10.5251V11.7415H8.5113V9.4091H10.5251V7.69067C10.5251 5.69613 11.7435 4.60908 13.5237 4.60908C14.3771 4.60908 15.1089 4.67279 15.3232 4.70176V6.78511H15.3213Z" fill="white"/>
</svg>
