<svg width="19" height="19" viewBox="0 0 19 19" fill="none" xmlns="http://www.w3.org/2000/svg">
<path d="M4.95977 2.99267C3.84124 4.14989 3.19125 5.7048 3.14127 7.34034C3.09129 8.97587 3.64505 10.5701 4.69057 11.7982C5.73618 13.0264 7.19514 13.796 8.77051 13.949C10.3156 14.0991 11.8573 13.6449 13.0935 12.6786L16.3054 16.0073L16.3054 16.0073C16.3855 16.0903 16.4808 16.1563 16.5859 16.2014C16.6911 16.2466 16.8039 16.2698 16.9179 16.2698C17.032 16.2698 17.1448 16.2466 17.2499 16.2014C17.3551 16.1563 17.4504 16.0903 17.5305 16.0073C17.6106 15.9243 17.6739 15.826 17.7171 15.718C17.7603 15.61 17.7824 15.4944 17.7824 15.3777C17.7824 15.2611 17.7603 15.1455 17.7171 15.0375C17.6739 14.9295 17.6106 14.8312 17.5305 14.7482L17.5305 14.7482L14.3138 11.4162C15.2462 10.1349 15.6831 8.5384 15.5375 6.93976C15.3892 5.31188 14.6479 3.80292 13.4634 2.72018C12.2787 1.63734 10.7397 1.06226 9.15936 1.11292C7.57904 1.16359 6.07742 1.83615 4.95977 2.99267ZM4.95977 2.99267L5.03167 3.06217L4.95977 2.99267ZM12.5246 4.25241C12.9467 4.68274 13.2827 5.19562 13.5128 5.76153C13.743 6.32746 13.8628 6.93511 13.8652 7.54943C13.8676 8.16374 13.7526 8.77239 13.5269 9.34025C13.3012 9.9081 12.9693 10.4238 12.5505 10.8577C12.1318 11.2916 11.6344 11.6351 11.0873 11.8685C10.5402 12.102 9.95402 12.2208 9.36255 12.2183C8.77109 12.2158 8.18586 12.092 7.64059 11.854C7.09532 11.6159 6.60069 11.2682 6.18535 10.8308C5.35524 9.9566 4.89159 8.77723 4.89641 7.54943C4.90124 6.32163 5.37415 5.14622 6.21108 4.27906C7.04789 3.41203 8.18071 2.9234 9.36255 2.91841C10.5444 2.91343 11.681 3.39248 12.5246 4.25241Z" fill="white" stroke="white" stroke-width="0.2"/>
</svg>
